Coordinates
version=1
nRows=41
nColumns=38
inDegrees=no

Units are S.I. units (second, meters, Newtons, ...)
If the header above contains a line with 'inDegrees', this indicates whether rotational values are in degrees (yes) or radians (no).

endheader
time	pelvis_tilt	pelvis_list	pelvis_rotation	pelvis_tx	pelvis_ty	pelvis_tz	hip_flexion_r	hip_adduction_r	hip_rotation_r	knee_angle_r	ankle_angle_r	subtalar_angle_r	mtp_angle_r	hip_flexion_l	hip_adduction_l	hip_rotation_l	knee_angle_l	ankle_angle_l	subtalar_angle_l	mtp_angle_l	lumbar_extension	lumbar_bending	lumbar_rotation	arm_flex_r	arm_add_r	arm_rot_r	elbow_flex_r	pro_sup_r	wrist_flex_r	wrist_dev_r	arm_flex_l	arm_add_l	arm_rot_l	elbow_flex_l	pro_sup_l	wrist_flex_l	wrist_dev_l
135	-2.04163	1.30072	-0.974521	-0.22942	-0.3818	0.915062	0.0607296	0.162182	-0.201812	0.473468	-0.270219	0	0	-0.398509	-0.433457	-0.233887	0.745358	-0.698132	0	0	-0.285723	0.3386	-0.166141	-0.194825	-0.573344	0.280693	1.24451	0	0	0	0.292482	-0.0597999	0.558038	0.231391	1.53116	0	0
135.01	-2.03944	1.29886	-0.982957	-0.239559	-0.378402	0.916347	0.0404136	0.171305	-0.190231	0.460046	-0.266913	0	0	-0.370108	-0.445	-0.22588	0.788553	-0.698132	0	0	-0.286344	0.335692	-0.165417	-0.189384	-0.571892	0.283642	1.25291	0	0	0	0.292375	-0.0656724	0.562572	0.23657	1.52904	0	0
135.02	-2.05071	1.29535	-0.979149	-0.250104	-0.375358	0.917079	0.0186307	0.184377	-0.177471	0.444077	-0.262456	0	0	-0.335301	-0.498152	-0.290162	0.869827	-0.698132	0	0	-0.284872	0.337787	-0.163196	-0.187091	-0.575079	0.285719	1.26608	0	0	0	0.290856	-0.0707922	0.569934	0.244401	1.52261	0	0
135.03	-2.02835	1.29566	-1.00717	-0.25928	-0.371818	0.919197	-0.00401514	0.186959	-0.165795	0.42776	-0.261182	0	0	-0.314743	-0.463706	-0.212124	0.870015	-0.698132	0	0	-0.288712	0.327485	-0.16379	-0.176666	-0.570479	0.2902	1.26813	0	0	0	0.292595	-0.0784764	0.570378	0.251013	1.51868	0	0
135.04	-2.0321	1.29039	-1.01214	-0.269557	-0.368736	0.920234	-0.031205	0.197517	-0.155541	0.408715	-0.259022	0	0	-0.286608	-0.512614	-0.273423	0.935159	-0.698132	0	0	-0.29007	0.328171	-0.161376	-0.173408	-0.573416	0.291307	1.28117	0	0	0	0.290773	-0.0843921	0.573292	0.261183	1.51068	0	0
135.05	-2.02181	1.28971	-1.03198	-0.279052	-0.365272	0.921723	-0.0533373	0.200978	-0.145662	0.395437	-0.257255	0	0	-0.261868	-0.512784	-0.260339	0.959295	-0.698132	0	0	-0.291462	0.321359	-0.158982	-0.166786	-0.572482	0.292914	1.28843	0	0	0	0.290881	-0.0908997	0.572486	0.269055	1.5071	0	0
135.06	-2.00888	1.28759	-1.05594	-0.288346	-0.361669	0.923313	-0.0798312	0.204975	-0.129677	0.375193	-0.256437	0	0	-0.238746	-0.511541	-0.249166	0.983208	-0.680157	0	0	-0.295506	0.31432	-0.155066	-0.160214	-0.571763	0.293522	1.29715	0	0	0	0.290219	-0.0990542	0.572015	0.281594	1.49989	0	0
135.07	-1.99644	1.28625	-1.07973	-0.297677	-0.358058	0.924796	-0.105067	0.207496	-0.115558	0.35614	-0.2571	0	0	-0.215402	-0.508219	-0.237807	1.0035	-0.642566	0	0	-0.298257	0.306894	-0.151398	-0.15453	-0.571023	0.293379	1.30641	0	0	0	0.289167	-0.10724	0.572301	0.294221	1.49109	0	0
135.08	-1.98398	1.28573	-1.10418	-0.307003	-0.354428	0.926141	-0.12876	0.208143	-0.103996	0.338873	-0.258612	0	0	-0.192042	-0.502826	-0.226703	1.02109	-0.589429	0	0	-0.299899	0.298948	-0.1479	-0.149379	-0.570269	0.292675	1.31633	0	0	0	0.287583	-0.115691	0.573351	0.307344	1.48042	0	0
135.09	-1.97224	1.28639	-1.12854	-0.316321	-0.350782	0.92731	-0.150247	0.207082	-0.0960572	0.323862	-0.259718	0	0	-0.167795	-0.496249	-0.217474	1.03454	-0.544605	0	0	-0.300038	0.29049	-0.144182	-0.144576	-0.569919	0.291947	1.32656	0	0	0	0.285567	-0.123492	0.572508	0.319952	1.47105	0	0
135.1	-1.96073	1.28777	-1.15362	-0.325559	-0.347147	0.928315	-0.170592	0.204655	-0.0906706	0.309409	-0.261232	0	0	-0.143467	-0.488675	-0.21104	1.04419	-0.500471	0	0	-0.299492	0.281811	-0.139838	-0.14009	-0.569886	0.291003	1.33723	0	0	0	0.283359	-0.130958	0.571252	0.332645	1.46126	0	0
135.11	-1.94814	1.28927	-1.18138	-0.334643	-0.343438	0.929188	-0.189992	0.200697	-0.087176	0.297095	-0.262194	0	0	-0.120135	-0.480546	-0.209161	1.04982	-0.466382	0	0	-0.299294	0.272647	-0.134312	-0.135198	-0.570492	0.290969	1.34803	0	0	0	0.281497	-0.137718	0.569178	0.344112	1.45331	0	0
135.12	-1.93347	1.28952	-1.21178	-0.343625	-0.339708	0.930045	-0.211033	0.196118	-0.0833393	0.28424	-0.263192	0	0	-0.0999518	-0.471895	-0.211001	1.0518	-0.431267	0	0	-0.300799	0.263363	-0.127975	-0.130355	-0.571096	0.290326	1.35904	0	0	0	0.279563	-0.144442	0.565587	0.356147	1.44474	0	0
135.13	-1.91924	1.28912	-1.24227	-0.352491	-0.335956	0.930829	-0.2327	0.191048	-0.0802316	0.270902	-0.264611	0	0	-0.0814234	-0.463122	-0.216196	1.04968	-0.39932	0	0	-0.303275	0.254288	-0.120837	-0.12523	-0.571939	0.289873	1.37045	0	0	0	0.277514	-0.151322	0.562156	0.368799	1.43582	0	0
135.14	-1.90799	1.2885	-1.27023	-0.361245	-0.332216	0.931486	-0.253975	0.18621	-0.0776433	0.257601	-0.266622	0	0	-0.06344	-0.454761	-0.223987	1.04379	-0.373754	0	0	-0.306266	0.246246	-0.112556	-0.120638	-0.573734	0.289352	1.38294	0	0	0	0.275787	-0.1572	0.558198	0.380764	1.42569	0	0
135.15	-1.89875	1.28739	-1.29646	-0.369946	-0.32847	0.932062	-0.273757	0.181775	-0.0847497	0.243899	-0.264209	0	0	-0.04646	-0.446817	-0.234327	1.03464	-0.356173	0	0	-0.309766	0.238625	-0.103778	-0.115681	-0.575993	0.289684	1.39433	0	0	0	0.274892	-0.162057	0.555169	0.390267	1.41637	0	0
135.16	-1.89096	1.28806	-1.32248	-0.378378	-0.324659	0.932263	-0.290445	0.175928	-0.0747077	0.2391	-0.267626	0	0	-0.0275647	-0.437842	-0.245678	1.02401	-0.343865	0	0	-0.311993	0.23059	-0.0938286	-0.110009	-0.578191	0.29043	1.4047	0	0	0	0.274784	-0.166171	0.553	0.397852	1.40808	0	0
135.17	-1.88318	1.28657	-1.34922	-0.386829	-0.320826	0.932533	-0.309519	0.17037	-0.0675743	0.229887	-0.269718	0	0	-0.0132798	-0.429895	-0.26367	1.00863	-0.332923	0	0	-0.316874	0.223403	-0.0823348	-0.105408	-0.58071	0.289789	1.41667	0	0	0	0.274661	-0.169878	0.550787	0.405969	1.39781	0	0
135.18	-1.87906	1.2846	-1.37217	-0.395093	-0.316975	0.932678	-0.328246	0.16562	-0.0592906	0.22099	-0.271275	0	0	0.00110388	-0.422785	-0.282368	0.99179	-0.326252	0	0	-0.322684	0.217422	-0.0702379	-0.100476	-0.58387	0.289721	1.42891	0	0	0	0.275399	-0.173413	0.550849	0.41315	1.3872	0	0
135.19	-1.87892	1.28377	-1.39059	-0.40324	-0.313139	0.932565	-0.34386	0.161551	-0.0516839	0.215345	-0.271825	0	0	0.0179134	-0.416267	-0.301058	0.974014	-0.323925	0	0	-0.327191	0.21235	-0.0586989	-0.0949432	-0.587007	0.290623	1.44067	0	0	0	0.276589	-0.176277	0.552291	0.418333	1.37877	0	0
135.2	-1.88086	1.28254	-1.40674	-0.411296	-0.309426	0.932354	-0.35916	0.15758	-0.0432175	0.21097	-0.271465	0	0	0.0339757	-0.410016	-0.3223	0.953633	-0.323911	0	0	-0.332525	0.208157	-0.046809	-0.0895902	-0.590337	0.290976	1.45299	0	0	0	0.278407	-0.17839	0.554831	0.422622	1.37094	0	0
135.21	-1.88611	1.28109	-1.4187	-0.419348	-0.305901	0.932013	-0.374312	0.154303	-0.0352792	0.206899	-0.270688	0	0	0.049839	-0.404767	-0.344178	0.930977	-0.326329	0	0	-0.338029	0.205553	-0.0354623	-0.0844436	-0.59423	0.290976	1.46617	0	0	0	0.280398	-0.179818	0.557975	0.425959	1.3641	0	0
135.22	-1.89521	1.2796	-1.42613	-0.427362	-0.302461	0.931516	-0.389238	0.152126	-0.0269728	0.20265	-0.269619	0	0	0.065028	-0.399962	-0.364822	0.904705	-0.331718	0	0	-0.343655	0.204374	-0.0241766	-0.0796382	-0.598626	0.29063	1.48006	0	0	0	0.282107	-0.181474	0.562436	0.430037	1.35767	0	0
135.23	-1.90835	1.27824	-1.42866	-0.435334	-0.299049	0.930863	-0.404321	0.151502	-0.0184501	0.196922	-0.268891	0	0	0.0791831	-0.395256	-0.383669	0.873888	-0.339693	0	0	-0.349083	0.204541	-0.0134999	-0.0745233	-0.602989	0.290258	1.49441	0	0	0	0.283695	-0.183072	0.567735	0.433861	1.3516	0	0
135.24	-1.92435	1.27779	-1.42727	-0.44319	-0.295843	0.930014	-0.418092	0.151667	-0.010664	0.191285	-0.26859	0	0	0.0935609	-0.390587	-0.399911	0.839688	-0.349292	0	0	-0.353815	0.205903	-0.00402221	-0.0688743	-0.607494	0.289392	1.50968	0	0	0	0.285113	-0.184127	0.571897	0.437173	1.34554	0	0
135.25	-1.94117	1.27674	-1.42467	-0.450935	-0.292755	0.929072	-0.433101	0.151855	-0.00157189	0.184456	-0.267968	0	0	0.105631	-0.386336	-0.415232	0.80172	-0.369895	0	0	-0.360596	0.208148	0.0087426	-0.0681821	-0.612618	0.281767	1.52959	0	0	0	0.266549	-0.218174	0.628352	0.482927	1.45506	0	0
135.26	-1.96031	1.27841	-1.41733	-0.458861	-0.289821	0.927723	-0.443889	0.15271	0.00162842	0.180886	-0.266299	0	0	0.12205	-0.382615	-0.426871	0.767039	-0.375311	0	0	-0.361918	0.210889	0.0131552	-0.0589042	-0.617187	0.284513	1.54402	0	0	0	0.265861	-0.218724	0.627399	0.485402	1.45988	0	0
135.27	-1.97909	1.27944	-1.41059	-0.466724	-0.286886	0.926292	-0.45577	0.153097	0.00710923	0.1761	-0.263369	0	0	0.133914	-0.377092	-0.437489	0.724408	-0.386234	0	0	-0.364903	0.214052	0.019009	-0.0516285	-0.622122	0.28378	1.56249	0	0	0	0.266363	-0.218017	0.63193	0.486495	1.46857	0	0
135.28	-1.99814	1.28107	-1.40225	-0.474545	-0.284025	0.924715	-0.465904	0.1537	0.0106246	0.173071	-0.260859	0	0	0.146896	-0.371457	-0.445018	0.683928	-0.394823	0	0	-0.36703	0.217158	0.0235032	-0.0431941	-0.626431	0.283091	1.58056	0	0	0	0.266523	-0.218054	0.635168	0.48715	1.47278	0	0
135.29	-2.01915	1.28373	-1.39099	-0.482459	-0.281263	0.922976	-0.474446	0.154733	0.0128629	0.170483	-0.258139	0	0	0.158964	-0.364222	-0.447395	0.63891	-0.402785	0	0	-0.36812	0.221046	0.0277358	-0.035607	-0.630506	0.280682	1.60117	0	0	0	0.265923	-0.218241	0.636097	0.488326	1.47334	0	0
135.3	-2.04314	1.28718	-1.37565	-0.490453	-0.278588	0.921057	-0.48125	0.156626	0.0140037	0.169176	-0.255001	0	0	0.170116	-0.35486	-0.441651	0.589026	-0.408859	0	0	-0.368139	0.226089	0.0311033	-0.02756	-0.634679	0.278056	1.62391	0	0	0	0.265211	-0.218178	0.638263	0.48857	1.47276	0	0
135.31	-2.06992	1.2916	-1.35669	-0.498521	-0.276004	0.918971	-0.485958	0.158995	0.0140033	0.169699	-0.250896	0	0	0.179987	-0.342931	-0.423683	0.53273	-0.411454	0	0	-0.366979	0.231981	0.0339356	-0.0207512	-0.639138	0.274095	1.64936	0	0	0	0.264752	-0.218165	0.642877	0.48783	1.46997	0	0
135.32	-2.09852	1.29687	-1.33548	-0.506725	-0.273413	0.916749	-0.489112	0.16152	0.0130281	0.171783	-0.246336	0	0	0.189177	-0.33058	-0.398609	0.475261	-0.409191	0	0	-0.363933	0.237886	0.035479	-0.0131283	-0.643272	0.271516	1.67567	0	0	0	0.263561	-0.218692	0.649241	0.486519	1.46569	0	0
135.33	-2.12818	1.30336	-1.31229	-0.515079	-0.2709	0.914411	-0.490204	0.163979	0.00981391	0.175696	-0.238568	0	0	0.191665	-0.312045	-0.349082	0.399153	-0.399479	0	0	-0.359677	0.244243	0.0384249	-0.00867774	-0.647192	0.264366	1.70677	0	0	0	0.264324	-0.218939	0.666846	0.485497	1.45895	0	0
135.34	-2.15458	1.30762	-1.29351	-0.523556	-0.268215	0.912163	-0.49394	0.165466	0.0066913	0.180167	-0.231622	0	0	0.189517	-0.297989	-0.306492	0.33032	-0.3872	0	0	-0.357748	0.248805	0.0398112	0.000479648	-0.651145	0.261808	1.73762	0	0	0	0.284384	-0.190178	0.638152	0.444041	1.27824	0	0
135.35	-2.19283	1.31431	-1.26387	-0.53233	-0.265136	0.909592	-0.49445	0.169252	0.00778324	0.18491	-0.226013	0	0	0.170455	-0.297973	-0.228861	0.214959	-0.401414	0	0	-0.350743	0.255891	0.0423009	0.00915556	-0.654806	0.259488	1.76906	0	0	0	0.282251	-0.193316	0.659984	0.44354	1.2434	0	0
135.36	-2.20458	1.31088	-1.26103	-0.540818	-0.262061	0.907701	-0.507516	0.168174	0.00508889	0.188522	-0.224001	0	0	0.161299	-0.292327	-0.219161	0.173866	-0.394618	0	0	-0.359995	0.252735	0.041059	0.0270952	-0.656891	0.263291	1.79946	0	0	0	0.300162	-0.184249	0.651656	0.448711	1.24288	0	0
135.37	-2.23104	1.31909	-1.2454	-0.550162	-0.25901	0.906102	-0.505131	0.164971	0.00512229	0.196384	-0.222952	0	0	0.167658	-0.273995	-0.208043	0.145543	-0.380635	0	0	-0.349953	0.260508	0.0449605	0.0377749	-0.66083	0.263308	1.83189	0	0	0	0.275295	-0.192722	0.664843	0.432003	1.23825	0	0
135.38	-2.25877	1.31989	-1.23024	-0.55999	-0.255147	0.904241	-0.511878	0.164124	0.00476096	0.20347	-0.222509	0	0	0.160711	-0.290482	-0.239836	0.128627	-0.378282	0	0	-0.347126	0.264348	0.0471593	0.0532086	-0.662871	0.268092	1.86402	0	0	0	0.268218	-0.193459	0.671455	0.424101	1.23543	0	0
135.39	-2.28483	1.32969	-1.21187	-0.569621	-0.252694	0.902329	-0.502855	0.159245	-0.00204628	0.221688	-0.217589	0	0	0.152547	-0.26273	-0.160364	0.0601267	-0.366719	0	0	-0.338777	0.270118	0.0554178	0.0517843	-0.666808	0.251741	1.90936	0	0	0	0.271549	-0.197854	0.731436	0.434484	1.16056	0	0
135.4	-2.27245	1.30096	-1.24571	-0.579403	-0.247562	0.902606	-0.523599	0.153862	0.00117887	0.228527	-0.221929	0	0	0.142615	-0.33558	-0.393728	0.423476	-0.366719	0	0	-0.377958	0.26537	0.0726316	0.0729056	-0.674094	0.253679	1.95946	0	0	0	0.288348	-0.18705	0.717428	0.437119	1.16124	0	0
